<?xml version="1.0" standalone="no"?>
<!DOCTYPE svg PUBLIC "-//W3C//DTD SVG 20010904//EN"
 "http://www.w3.org/TR/2001/REC-SVG-20010904/DTD/svg10.dtd">
<svg version="1.0" xmlns="http://www.w3.org/2000/svg"
 width="640.000000pt" height="640.000000pt" viewBox="0 0 640.000000 640.000000"
 preserveAspectRatio="xMidYMid meet">

<g transform="translate(0.000000,640.000000) scale(0.100000,-0.100000)"
fill="#000000" stroke="none">
<path d="M2870 6240 c-8 -5 -27 -10 -41 -10 -28 0 -95 -25 -118 -44 -8 -6 -24
-12 -35 -13 -78 -6 -203 -43 -236 -69 -20 -15 -156 -48 -169 -40 -5 4 -12 2
-16 -4 -3 -5 -13 -10 -22 -10 -19 0 -42 -28 -43 -52 0 -21 48 -57 115 -87 110
-49 142 -65 180 -91 22 -15 76 -46 120 -69 74 -40 163 -95 192 -120 7 -6 16
-11 21 -11 4 0 30 -14 58 -31 55 -36 165 -95 269 -146 39 -19 107 -59 152 -89
44 -30 86 -54 91 -54 6 0 37 -15 70 -34 32 -18 99 -53 147 -77 150 -75 150
-75 122 -113 -12 -16 -18 -17 -48 -8 -146 47 -203 61 -224 56 -23 -6 -139 19
-159 35 -14 10 -99 27 -205 40 -47 6 -89 15 -95 21 -5 5 -20 10 -32 10 -12 0
-27 7 -34 15 -7 9 -19 14 -26 11 -7 -3 -46 1 -86 8 -89 16 -417 5 -593 -18
-60 -9 -130 -18 -155 -21 -25 -3 -63 -8 -85 -11 -22 -2 -83 -7 -135 -10 -410
-20 -660 -48 -668 -73 -2 -6 -15 -11 -28 -11 -13 0 -24 -3 -24 -7 -1 -5 -22
-23 -48 -42 -56 -39 -82 -96 -55 -117 9 -6 13 -16 9 -22 -4 -7 -3 -12 2 -12 5
0 12 -8 15 -17 25 -78 131 -193 178 -193 16 0 49 -4 72 -9 23 -5 85 -15 137
-21 52 -6 118 -15 145 -20 45 -8 175 -27 355 -50 36 -5 106 -15 155 -24 50 -8
124 -18 165 -21 41 -4 102 -13 135 -20 33 -7 119 -21 190 -29 330 -40 455 -58
470 -68 6 -4 78 -14 160 -23 83 -9 170 -20 195 -26 130 -30 253 -48 317 -49
42 0 89 -7 112 -16 l39 -15 7 -114 c4 -63 3 -120 -1 -126 -4 -7 -11 -59 -15
-114 -10 -146 -22 -167 -111 -209 -81 -39 -128 -65 -143 -82 -5 -7 -22 -14
-36 -18 -14 -3 -47 -15 -75 -28 -27 -12 -53 -23 -59 -24 -5 -2 -20 -5 -31 -8
-12 -2 -43 -15 -70 -29 -79 -39 -162 -69 -172 -63 -5 3 -15 0 -21 -8 -6 -8
-35 -24 -64 -36 -115 -48 -127 -54 -127 -62 0 -4 -9 -8 -19 -8 -11 0 -42 -11
-69 -25 -28 -14 -56 -25 -64 -25 -7 0 -22 -6 -33 -14 -11 -7 -38 -16 -59 -20
-22 -4 -49 -14 -60 -22 -11 -8 -27 -14 -35 -14 -8 0 -43 -13 -78 -30 -34 -16
-72 -30 -84 -30 -11 0 -33 -6 -47 -14 -15 -8 -47 -22 -72 -31 -25 -9 -59 -23
-75 -30 -17 -7 -44 -15 -62 -19 -17 -4 -37 -14 -44 -22 -6 -8 -18 -14 -26 -14
-9 0 -36 -11 -62 -24 -83 -44 -179 -86 -194 -86 -8 0 -20 -7 -27 -15 -7 -8
-21 -15 -31 -15 -11 0 -27 -4 -37 -9 -67 -36 -113 -50 -146 -44 -41 6 -44 10
-81 81 -15 29 -32 56 -39 60 -6 4 -20 25 -31 46 -11 22 -33 49 -48 60 l-28 21
-42 -22 c-103 -51 -238 -113 -247 -113 -6 0 -18 -4 -28 -9 -55 -28 -93 -39
-113 -34 -19 5 -21 3 -16 -16 4 -18 2 -21 -10 -17 -23 9 -115 -22 -135 -46
-22 -25 -23 -38 -3 -38 18 0 19 -12 3 -28 -9 -9 -13 -60 -15 -170 -1 -86 -2
-197 -4 -247 l-2 -89 40 -36 c22 -19 60 -40 84 -46 24 -7 85 -21 134 -34 50
-12 140 -37 200 -55 61 -19 120 -37 133 -40 23 -7 23 -9 17 -93 -4 -48 -11
-91 -15 -97 -5 -5 -15 -35 -24 -65 -15 -51 -20 -82 -33 -210 -3 -25 -13 -63
-23 -85 -22 -47 -45 -147 -60 -265 -7 -46 -13 -87 -16 -91 -11 -18 35 -92 100
-159 40 -41 112 -120 161 -175 48 -55 133 -148 189 -207 55 -59 153 -162 217
-230 64 -68 133 -142 155 -164 l39 -42 115 -6 c63 -3 221 -11 350 -16 129 -6
282 -15 340 -20 58 -5 202 -12 320 -15 212 -5 494 -19 660 -33 47 -4 130 -7
185 -7 86 0 100 2 103 17 2 11 -16 29 -55 55 -32 21 -60 41 -61 46 -2 4 -20
17 -40 28 -21 11 -57 33 -82 49 -25 16 -52 33 -60 37 -8 3 -34 22 -56 40 -23
18 -99 71 -170 118 -71 46 -134 89 -141 94 -7 6 -15 11 -19 11 -4 0 -25 16
-48 36 -22 19 -47 39 -53 45 -13 10 -17 78 -7 116 6 22 9 22 158 19 83 -2 178
-9 211 -15 57 -10 575 -31 585 -23 3 2 -4 10 -15 18 -11 8 -28 21 -38 29 -9 8
-27 15 -40 15 -14 0 -40 18 -67 45 -24 25 -48 45 -54 45 -5 0 -23 11 -40 24
-17 13 -40 26 -51 29 -11 4 -43 21 -70 39 -28 18 -64 40 -80 48 -34 17 -127
79 -135 90 -3 4 -14 10 -25 14 -11 3 -44 22 -73 41 -30 19 -56 35 -59 35 -3 0
-27 18 -53 40 -26 22 -52 40 -58 40 -5 0 -21 9 -36 21 -28 22 -33 51 -13 75
11 15 21 25 76 78 10 10 23 22 27 27 34 34 154 133 177 145 42 22 39 24 386
-316 65 -63 157 -151 205 -195 49 -44 106 -97 128 -118 22 -20 47 -37 54 -37
20 0 18 51 -6 112 -11 29 -32 114 -46 188 -14 74 -30 140 -35 147 -6 6 -21 67
-34 135 -13 67 -28 137 -34 153 -5 17 -14 46 -21 65 -9 29 -21 88 -42 220 -5
30 25 134 51 179 15 25 40 71 55 101 15 30 45 87 66 125 22 39 51 95 66 125
14 30 35 67 46 83 11 16 33 55 49 88 16 32 32 59 36 59 5 0 16 21 26 48 22 57
30 73 115 237 67 128 67 129 117 148 28 11 77 30 110 42 33 13 89 31 125 39
159 40 211 55 260 80 28 14 59 26 69 26 38 0 120 31 143 55 25 25 25 26 32
272 4 137 9 262 12 279 5 27 0 37 -31 65 -73 67 -104 97 -306 290 -112 108
-220 209 -239 225 -43 34 -130 116 -179 168 -20 22 -62 67 -94 100 -32 34 -70
80 -84 104 -13 23 -29 42 -34 42 -5 0 -9 5 -9 12 0 12 -118 123 -132 123 -4 0
-33 29 -64 65 -30 36 -69 80 -85 98 -16 18 -29 39 -29 47 0 8 -13 21 -29 29
-15 8 -36 27 -46 42 -10 16 -49 57 -87 93 -37 36 -68 68 -68 72 0 3 -36 42
-79 87 -44 44 -82 89 -85 100 -7 20 -95 82 -118 82 -8 0 -23 7 -34 15 -10 8
-27 15 -37 15 -10 0 -55 17 -100 39 -45 21 -107 46 -137 56 -30 10 -59 21 -65
24 -5 4 -37 17 -70 30 -74 28 -106 42 -123 54 -6 5 -63 27 -125 48 -61 21
-121 43 -132 47 -70 31 -120 38 -145 22z m58 -47 c2 -9 -8 -13 -32 -13 -19 0
-38 -4 -41 -10 -3 -5 -11 -10 -17 -10 -6 0 -1 11 12 25 26 27 70 31 78 8z m82
-18 c0 -8 -2 -15 -4 -15 -2 0 -6 7 -10 15 -3 8 -1 15 4 15 6 0 10 -7 10 -15z
m-35 -13 c-3 -3 -11 0 -18 7 -9 10 -8 11 6 5 10 -3 15 -9 12 -12z m123 -9 c18
-3 40 -15 50 -27 9 -12 25 -20 35 -18 9 2 17 -1 17 -7 0 -6 9 -11 19 -11 32 0
51 -11 51 -31 0 -18 -1 -18 -32 0 -18 11 -58 29 -88 41 -95 38 -119 50 -126
62 -5 8 0 9 17 4 13 -4 39 -9 57 -13z m-348 -13 c0 -5 -7 -10 -16 -10 -8 0
-12 5 -9 10 3 6 10 10 16 10 5 0 9 -4 9 -10z m47 4 c-3 -3 -12 -4 -19 -1 -8 3
-5 6 6 6 11 1 17 -2 13 -5z m-112 -44 c19 -8 19 -9 -2 -9 -12 -1 -30 -4 -40
-8 -16 -6 -16 -5 -4 10 15 19 17 19 46 7z m-54 -30 c5 0 9 -4 9 -8 0 -6 -45
-9 -58 -3 -12 4 13 21 25 17 8 -3 19 -6 24 -6z m616 -52 c-3 -8 -6 -5 -6 6 -1
11 2 17 5 13 3 -3 4 -12 1 -19z m-7 -24 c0 -2 -7 -4 -15 -4 -8 0 -15 4 -15 10
0 5 7 7 15 4 8 -4 15 -8 15 -10z m30 -4 c0 -5 -4 -10 -10 -10 -5 0 -10 5 -10
10 0 6 5 10 10 10 6 0 10 -4 10 -10z m40 0 c0 -5 -2 -10 -4 -10 -3 0 -8 5 -11
10 -3 6 -1 10 4 10 6 0 11 -4 11 -10z m-262 -27 c-32 -2 -84 -2 -115 0 -32 2
-6 3 57 3 63 0 89 -1 58 -3z m309 1 c-3 -3 -12 -4 -19 -1 -8 3 -5 6 6 6 11 1
17 -2 13 -5z m1731 -1398 c2 -10 18 -31 35 -47 18 -15 28 -29 22 -29 -14 0
-104 87 -97 95 11 11 37 0 40 -19z m-768 -66 c0 -5 -7 -10 -15 -10 -8 0 -15 5
-15 10 0 6 7 10 15 10 8 0 15 -4 15 -10z m866 -42 c40 -33 66 -60 60 -65 -3
-3 -18 6 -33 21 -15 14 -37 32 -48 40 -12 9 -15 15 -7 16 7 0 20 -6 28 -12z
m-1031 -48 c-3 -5 -11 -10 -16 -10 -6 0 -7 5 -4 10 3 6 11 10 16 10 6 0 7 -4
4 -10z m1141 -75 c9 -8 11 -15 6 -15 -5 0 -15 7 -22 15 -7 8 -9 15 -6 15 4 0
14 -7 22 -15z m94 -101 c0 -3 -7 -1 -15 6 -8 7 -15 17 -15 22 0 5 7 3 15 -6 8
-8 15 -18 15 -22z m64 -92 c-4 -4 -9 -1 -11 6 -3 6 -11 12 -18 12 -7 0 -16 7
-19 16 -13 35 -4 37 25 6 17 -19 27 -37 23 -40z m-517 26 c-3 -8 -6 -5 -6 6
-1 11 2 17 5 13 3 -3 4 -12 1 -19z m-17 -27 c-1 -13 -3 -13 -15 3 -19 26 -19
42 0 26 8 -7 15 -20 15 -29z m505 -1 c-3 -5 -10 -10 -16 -10 -5 0 -9 5 -9 10
0 6 7 10 16 10 8 0 12 -4 9 -10z m-395 -61 c0 -5 -7 -9 -15 -9 -15 0 -20 12
-9 23 8 8 24 -1 24 -14z"/>
<path d="M1030 5120 c0 -5 4 -10 9 -10 6 0 13 5 16 10 3 6 -1 10 -9 10 -9 0
-16 -4 -16 -10z"/>
</g>
</svg>
